<svg width="72" height="56" viewBox="0 0 72 56" fill="none" xmlns="http://www.w3.org/2000/svg">
<path d="M72 20.451C72 26.849 68.9501 32.5609 64.1748 36.3107C60.6155 39.1056 56.0977 40.8104 51.1695 40.8973C50.8213 40.8928 50.4731 40.894 50.1248 40.9009C42.5457 41.051 35.0141 43.9122 29.2306 49.4841C27.2217 51.4162 25.503 53.6094 24.1245 56C24.7055 50.5197 27.1035 45.1843 31.3186 40.9009C31.3467 40.8723 31.375 40.8438 31.4033 40.8152L32.2586 39.9906L40.1085 32.428L40.1073 32.427L48.7281 24.1211C52.243 20.7349 52.243 15.2448 48.7281 11.8584C45.2133 8.47206 39.5145 8.47206 35.9997 11.8584C32.4847 8.47206 26.786 8.47206 23.2712 11.8584C19.7563 15.2448 19.7563 20.7348 23.2712 24.1211L29.8839 30.4919L30.2339 30.8291C31.3095 31.9512 31.9005 33.4262 31.8866 34.9535C31.8726 36.4809 31.2547 37.9457 30.1588 39.0494L29.9637 39.2373C28.8457 40.2704 27.367 40.8635 25.8183 40.8998H21.2265C9.50343 40.8998 0 31.7441 0 20.4499C0 9.15569 9.50343 0 21.2265 0H50.7734C62.4964 0.00106401 72 9.15675 72 20.451Z" fill="white"/>
</svg>
