<svg width="72" height="80" viewBox="0 0 72 80" fill="none" xmlns="http://www.w3.org/2000/svg">
<path d="M26.7269 71.733L26.5487 72.8023H24.5526V79.7769H23.1506V72.8023H21.1188V71.733H26.7269ZM28.7658 71.733H29.8826L32.9837 79.7769H31.4748L30.7381 77.6738H27.839L27.0786 79.7769H25.6765L28.7658 71.733ZM30.3698 76.6282C30.1163 75.9153 29.8985 75.2698 29.7163 74.6915C29.5341 74.1054 29.3955 73.6459 29.3004 73.3133C29.1895 73.6697 29.043 74.137 28.8608 74.7153C28.6786 75.2935 28.4648 75.9312 28.2192 76.6282H30.3698ZM33.3457 71.733H34.7597V78.7075H37.7657V79.7769H33.3457V71.733ZM38.1861 71.733H39.6V79.7769H38.1861V71.733ZM43.7586 71.733C43.6319 72.3271 43.4893 72.834 43.3309 73.2538C43.1804 73.6657 43.014 74.0182 42.8318 74.3113C42.6497 74.5965 42.4477 74.842 42.2259 75.048C42.012 75.246 41.7823 75.4282 41.5367 75.5945L44.4596 79.7769H42.82L39.7545 75.4282V75.345C40.4832 75.0757 41.0456 74.6361 41.4417 74.0261C41.8457 73.4083 42.1546 72.6439 42.3685 71.733H43.7586Z" fill="white"/>
<path d="M72 20.451C72 26.849 68.9501 32.5609 64.1748 36.3107C60.6155 39.1056 56.0977 40.8104 51.1695 40.8973C50.8213 40.8928 50.4731 40.894 50.1248 40.9009C42.5457 41.051 35.0141 43.9122 29.2306 49.4841C27.2217 51.4162 25.503 53.6094 24.1245 56C24.7055 50.5197 27.1035 45.1843 31.3186 40.9009C31.3467 40.8723 31.375 40.8438 31.4033 40.8152L32.2586 39.9906L40.1085 32.428L40.1073 32.427L48.7281 24.1211C52.243 20.7349 52.243 15.2448 48.7281 11.8584C45.2133 8.47206 39.5145 8.47206 35.9997 11.8584C32.4847 8.47206 26.786 8.47206 23.2712 11.8584C19.7563 15.2448 19.7563 20.7348 23.2712 24.1211L29.8839 30.4919L30.2339 30.8291C31.3095 31.9512 31.9005 33.4262 31.8866 34.9535C31.8726 36.4809 31.2547 37.9457 30.1588 39.0494L29.9637 39.2373C28.8457 40.2704 27.367 40.8635 25.8183 40.8998H21.2265C9.50343 40.8998 0 31.7441 0 20.4499C0 9.15569 9.50343 0 21.2265 0H50.7734C62.4964 0.00106401 72 9.15675 72 20.451Z" fill="white"/>
<path d="M23.4644 62.7087C23.6814 62.7087 23.8891 62.7304 24.0875 62.7738C24.2859 62.811 24.4657 62.8575 24.6269 62.9133C24.7943 62.9629 24.9338 63.0156 25.0454 63.0714C25.1632 63.1272 25.2438 63.1706 25.2872 63.2016L24.8315 64.0014L24.7106 63.9363C24.63 63.8929 24.5246 63.8433 24.3944 63.7875C24.2642 63.7317 24.1216 63.6821 23.9666 63.6387C23.8116 63.5953 23.6628 63.5736 23.5202 63.5736C23.297 63.5736 23.1017 63.6263 22.9344 63.7317C22.7732 63.8371 22.6926 64.0014 22.6926 64.2246C22.6926 64.5036 22.7825 64.733 22.9623 64.9128C23.142 65.0864 23.4241 65.2476 23.8085 65.3964C24.0565 65.4956 24.2766 65.601 24.4688 65.7126C24.6672 65.818 24.8346 65.942 24.971 66.0846C25.1074 66.2272 25.2097 66.3914 25.2779 66.5774C25.3523 66.7634 25.3895 66.9866 25.3895 67.247C25.3895 67.4826 25.343 67.7151 25.25 67.9445C25.1632 68.1739 25.0299 68.3785 24.8501 68.5583C24.6765 68.7319 24.4595 68.8745 24.1991 68.9861C23.9387 69.0915 23.638 69.1442 23.297 69.1442C23.0552 69.1442 22.8259 69.1194 22.6089 69.0698C22.3919 69.0202 22.1935 68.9644 22.0137 68.9024C21.8401 68.8342 21.6882 68.766 21.558 68.6978C21.434 68.6296 21.341 68.5769 21.279 68.5397L21.6696 67.6841L21.837 67.7771C21.9486 67.8391 22.085 67.9073 22.2462 67.9817C22.4074 68.0561 22.5779 68.1243 22.7577 68.1863C22.9375 68.2483 23.0924 68.2793 23.2226 68.2793C23.5512 68.2793 23.7961 68.1987 23.9573 68.0375C24.1185 67.8763 24.1991 67.65 24.1991 67.3586C24.1991 67.2222 24.1774 67.1044 24.134 67.0052C24.0906 66.8998 24.0286 66.8099 23.948 66.7355C23.8674 66.6611 23.7682 66.596 23.6504 66.5402C23.5388 66.4782 23.4117 66.4193 23.2691 66.3635C22.9901 66.2458 22.7391 66.128 22.5159 66.0102C22.2989 65.8924 22.1129 65.7591 21.9579 65.6103C21.8029 65.4553 21.6851 65.2817 21.6045 65.0895C21.5239 64.8911 21.4836 64.6555 21.4836 64.3827C21.4836 64.1533 21.5332 63.9394 21.6324 63.741C21.7316 63.5364 21.868 63.3597 22.0416 63.2109C22.2152 63.0559 22.4229 62.935 22.6647 62.8482C22.9065 62.7552 23.173 62.7087 23.4644 62.7087ZM29.5729 69.0884H28.7917L27.7408 66.6983C27.7098 66.6301 27.6695 66.5371 27.6199 66.4193C27.5765 66.3015 27.5269 66.1714 27.4711 66.0288C27.4153 65.8862 27.3564 65.7374 27.2944 65.5824C27.2324 65.4212 27.1735 65.26 27.1177 65.0988C27.1177 65.26 27.1146 65.4212 27.1084 65.5824C27.1084 65.7374 27.1053 65.8862 27.0991 66.0288C27.0929 66.1652 27.0867 66.2892 27.0805 66.4007C27.0805 66.5061 27.0805 66.5898 27.0805 66.6518L26.9875 69.0884H25.9459L26.3179 62.7738H27.1828L28.7731 66.7169C28.8289 66.8595 28.8909 67.0145 28.9591 67.1819C29.0335 67.3493 29.1017 67.5136 29.1637 67.6748C29.2257 67.5136 29.2908 67.3524 29.359 67.1912C29.4272 67.0238 29.4923 66.8657 29.5543 66.7169L31.1538 62.7738H32.0001L32.3721 69.0884H31.3398L31.2375 66.6797C31.2313 66.5247 31.222 66.3046 31.2096 66.0195C31.2034 65.7281 31.1972 65.4336 31.191 65.136C31.1352 65.291 31.0763 65.446 31.0143 65.601C30.9585 65.756 30.9058 65.9017 30.8562 66.0381C30.8066 66.1745 30.7601 66.2984 30.7167 66.41C30.6733 66.5216 30.6392 66.6084 30.6144 66.6704L29.5729 69.0884ZM34.9718 62.7924H35.846L38.2732 69.0884H37.0921L36.5156 67.4423H34.2464L33.6512 69.0884H32.5539L34.9718 62.7924ZM36.2273 66.6239C36.0289 66.066 35.8584 65.5607 35.7158 65.1081C35.5732 64.6493 35.4647 64.2897 35.3903 64.0293C35.3035 64.3083 35.1888 64.6741 35.0462 65.1267C34.9036 65.5793 34.7362 66.0784 34.544 66.6239H36.2273ZM38.5566 62.7924H39.6632V68.2514H42.0161V69.0884H38.5566V62.7924ZM42.3451 62.7924H43.4518V68.2514H45.8046V69.0884H42.3451V62.7924Z" fill="white"/>
</svg>
