<svg width="72" height="80" viewBox="0 0 72 80" fill="none" xmlns="http://www.w3.org/2000/svg">
<path d="M26.7269 71.733L26.5487 72.8023H24.5526V79.7769H23.1506V72.8023H21.1188V71.733H26.7269ZM28.7658 71.733H29.8826L32.9837 79.7769H31.4748L30.7381 77.6738H27.839L27.0786 79.7769H25.6765L28.7658 71.733ZM30.3698 76.6282C30.1163 75.9153 29.8985 75.2698 29.7163 74.6915C29.5341 74.1054 29.3955 73.6459 29.3004 73.3133C29.1895 73.6697 29.043 74.137 28.8608 74.7153C28.6786 75.2935 28.4648 75.9312 28.2192 76.6282H30.3698ZM33.3457 71.733H34.7597V78.7075H37.7657V79.7769H33.3457V71.733ZM38.1861 71.733H39.6V79.7769H38.1861V71.733ZM43.7586 71.733C43.6319 72.3271 43.4893 72.834 43.3309 73.2538C43.1804 73.6657 43.014 74.0182 42.8318 74.3113C42.6497 74.5965 42.4477 74.842 42.2259 75.048C42.012 75.246 41.7823 75.4282 41.5367 75.5945L44.4596 79.7769H42.82L39.7545 75.4282V75.345C40.4832 75.0757 41.0456 74.6361 41.4417 74.0261C41.8457 73.4083 42.1546 72.6439 42.3685 71.733H43.7586Z" fill="#434C60"/>
<path d="M72 20.451C72 26.849 68.9501 32.5609 64.1748 36.3107C60.6155 39.1056 56.0977 40.8104 51.1695 40.8973C50.8213 40.8928 50.4731 40.894 50.1248 40.9009C42.5457 41.051 35.0141 43.9122 29.2306 49.4841C27.2217 51.4162 25.503 53.6094 24.1245 56C24.7055 50.5197 27.1035 45.1843 31.3186 40.9009C31.3467 40.8723 31.375 40.8438 31.4033 40.8152L32.2586 39.9906L40.1085 32.428L40.1073 32.427L48.7281 24.1211C52.243 20.7349 52.243 15.2448 48.7281 11.8584C45.2133 8.47206 39.5145 8.47206 35.9997 11.8584C32.4847 8.47206 26.786 8.47206 23.2712 11.8584C19.7563 15.2448 19.7563 20.7348 23.2712 24.1211L29.8839 30.4919L30.2339 30.8291C31.3095 31.9512 31.9005 33.4262 31.8866 34.9535C31.8726 36.4809 31.2547 37.9457 30.1588 39.0494L29.9637 39.2373C28.8457 40.2704 27.367 40.8635 25.8183 40.8998H21.2265C9.50343 40.8998 0 31.7441 0 20.4499C0 9.15569 9.50343 0 21.2265 0H50.7734C62.4964 0.00106401 72 9.15675 72 20.451Z" fill="#434C60"/>
</svg>
